M48
;DRILL file {KiCad 4.0.6} date 07/23/17 12:32:56
;FORMAT={2:4/ absolute / inch / suppress trailing zeros}
FMAT,2
INCH,LZ
T1C0.016
T2C0.032
T3C0.039
T4C0.091
T5C0.110
T6C0.118
%
G90
G05
M72
T1
X017815Y-025098
X018504Y-024803
X020669Y-022362
X029035Y-011417
X030906Y-01624
X031772Y-017008
X03248Y-017165
X03248Y-022126
X032972Y-011811
X033268Y-012697
X033465Y-020394
X035748Y-026055
X03602Y-02574
X036024Y-025394
X036024Y-026378
X036063Y-023543
X036516Y-015945
X037598Y-02185
X037795Y-031594
X037913Y-02185
X037992Y-048228
X037992Y-048622
X038189Y-016535
X038228Y-02185
X038228Y-027717
X038543Y-02185
X038543Y-027717
X038583Y-060236
X038583Y-06063
X038858Y-027717
X039173Y-027717
X039488Y-027717
X039803Y-02185
X039803Y-027717
X040118Y-02185
X040118Y-027717
X040157Y-060236
X040157Y-06063
X040433Y-026299
X040433Y-027717
X040748Y-02185
X040748Y-048228
X040748Y-048622
X041142Y-01624
X041339Y-015945
X041929Y-026063
X042205Y-024173
X042205Y-025433
X042205Y-025748
X042224Y-024508
X04626Y-009449
X047047Y-009154
X047913Y-010669
X062795Y-024606
T2
X038681Y-013386
X038681Y-014173
X039681Y-013386
X039681Y-014173
T3
X01926Y-009941
X02026Y-009941
X02126Y-009941
X023425Y-009941
X024425Y-009941
X025425Y-009941
X026425Y-009941
X028445Y-009827
X028445Y-010827
X029445Y-009827
X029445Y-010827
X030445Y-009827
X030445Y-010827
T4
X036819Y-012323
X041543Y-012323
T5
X01939Y-01935
X01939Y-031358
X01939Y-043366
X01939Y-055374
X022933Y-01935
X022933Y-031358
X022933Y-043366
X022933Y-055374
X031398Y-01935
X031398Y-031358
X031398Y-043366
X031398Y-055374
X034941Y-01935
X034941Y-031358
X034941Y-043366
X034941Y-055374
X043406Y-01935
X043406Y-031358
X043406Y-043366
X043406Y-055374
X046949Y-01935
X046949Y-031358
X046949Y-043366
X046949Y-055374
X055413Y-01935
X055413Y-031358
X055413Y-043366
X055413Y-055374
X058957Y-01935
X058957Y-031358
X058957Y-043366
X058957Y-055374
T6
X012402Y-010039
X012402Y-063583
X065945Y-010039
X065945Y-063583
T0
M30
